<svg xmlns="http://www.w3.org/2000/svg" viewBox="0 0 128 32" width="128" height="32">
  <rect fill="#0B5CFF" x="0" y="4" width="32" height="24" rx="6"/>
  <rect fill="#fff" x="16" y="10" width="12" height="12" rx="2"/>
  <path fill="#0B5CFF" d="M48 11c-4 0-7 3-7 7s3 7 7 7 7-3 7-7-3-7-7-7zm0 4a3 3 0 110 6 3 3 0 010-6z"/>
  <path fill="#0B5CFF" d="M65 11h6c3 0 5 2 5 5s-2 5-5 5h-6v-10zm6 7c1 0 2-1 2-2s-1-2-2-2h-3v4h3z"/>
  <path fill="#0B5CFF" d="M83 11h11v3h-8v2h6v3h-6v2h8v3H83z"/>
  <path fill="#0B5CFF" d="M103 11h6c3 0 5 2 5 5s-2 5-5 5h-6v-10zm6 7c1 0 2-1 2-2s-1-2-2-2h-3v4h3z"/>
</svg>

